#tb 0: 1/24000
0,        519,        519,        0,  6220800, 0x89daa15e
0,       1520,       1520,        0,  6220800, 0xcf52e254
0,       2521,       2521,        0,  6220800, 0x91132c13
0,       3522,       3522,        0,  6220800, 0x37b8be91
0,       4523,       4523,        0,  6220800, 0x2b09bafa
0,       5524,       5524,        0,  6220800, 0x06d79d8d
0,       6525,       6525,        0,  6220800, 0x8e793c1d
0,       7526,       7526,        0,  6220800, 0xea0fd885
0,       8527,       8527,        0,  6220800, 0x7786a2ad
0,       9528,       9528,        0,  6220800, 0xed4f9dd9
